<mxfile host="app.diagrams.net" agent="Mozilla/5.0 (X11; Linux x86_64) AppleWebKit/537.36 (KHTML, like Gecko) Chrome/134.0.0.0 Safari/537.36" version="26.1.1">
  <diagram name="Page-1" id="-Z8tN2I0H1LuPYNwQCXm">
    <mxGraphModel dx="2049" dy="1074" grid="1" gridSize="10" guides="1" tooltips="1" connect="1" arrows="1" fold="1" page="1" pageScale="1" pageWidth="850" pageHeight="1100" math="0" shadow="0">
      <root>
        <mxCell id="0" />
        <mxCell id="1" parent="0" />
        <mxCell id="vaAEWbLIKPImY8yM4HJA-49" value="" style="group" vertex="1" connectable="0" parent="1">
          <mxGeometry x="440" y="40" width="200" height="760" as="geometry" />
        </mxCell>
        <mxCell id="vaAEWbLIKPImY8yM4HJA-44" value="" style="rounded=0;whiteSpace=wrap;html=1;fillColor=#f8cecc;strokeColor=#b85450;glass=0;opacity=40;" vertex="1" parent="vaAEWbLIKPImY8yM4HJA-49">
          <mxGeometry y="640" width="200" height="120" as="geometry" />
        </mxCell>
        <mxCell id="vaAEWbLIKPImY8yM4HJA-45" value="" style="rounded=0;whiteSpace=wrap;html=1;fillColor=#d5e8d4;strokeColor=#82b366;glass=0;opacity=40;" vertex="1" parent="vaAEWbLIKPImY8yM4HJA-49">
          <mxGeometry y="480" width="200" height="120" as="geometry" />
        </mxCell>
        <mxCell id="vaAEWbLIKPImY8yM4HJA-46" value="" style="rounded=0;whiteSpace=wrap;html=1;fillColor=#dae8fc;strokeColor=#6c8ebf;glass=0;opacity=40;" vertex="1" parent="vaAEWbLIKPImY8yM4HJA-49">
          <mxGeometry y="320" width="200" height="120" as="geometry" />
        </mxCell>
        <mxCell id="vaAEWbLIKPImY8yM4HJA-47" value="" style="rounded=0;whiteSpace=wrap;html=1;fillColor=#fff2cc;strokeColor=#d6b656;glass=0;opacity=40;" vertex="1" parent="vaAEWbLIKPImY8yM4HJA-49">
          <mxGeometry width="200" height="120" as="geometry" />
        </mxCell>
        <mxCell id="vaAEWbLIKPImY8yM4HJA-48" value="" style="rounded=0;whiteSpace=wrap;html=1;fillColor=#e1d5e7;strokeColor=#9673a6;glass=0;opacity=40;" vertex="1" parent="vaAEWbLIKPImY8yM4HJA-49">
          <mxGeometry y="160" width="200" height="120" as="geometry" />
        </mxCell>
        <mxCell id="vaAEWbLIKPImY8yM4HJA-12" value="Mysql" style="whiteSpace=wrap;html=1;" vertex="1" parent="vaAEWbLIKPImY8yM4HJA-49">
          <mxGeometry x="10" y="42" width="120" height="68" as="geometry" />
        </mxCell>
        <mxCell id="vaAEWbLIKPImY8yM4HJA-13" value="10.0.5.0/24" style="text;html=1;align=center;verticalAlign=middle;resizable=0;points=[];autosize=1;strokeColor=none;fillColor=none;" vertex="1" parent="vaAEWbLIKPImY8yM4HJA-49">
          <mxGeometry x="30" y="20" width="80" height="30" as="geometry" />
        </mxCell>
        <mxCell id="vaAEWbLIKPImY8yM4HJA-43" value="R5" style="text;html=1;align=center;verticalAlign=middle;resizable=0;points=[];autosize=1;strokeColor=none;fillColor=none;" vertex="1" parent="vaAEWbLIKPImY8yM4HJA-49">
          <mxGeometry x="150" y="20" width="40" height="30" as="geometry" />
        </mxCell>
        <mxCell id="vaAEWbLIKPImY8yM4HJA-38" value="10.0.4.0/24" style="text;html=1;align=center;verticalAlign=middle;resizable=0;points=[];autosize=1;strokeColor=none;fillColor=none;" vertex="1" parent="vaAEWbLIKPImY8yM4HJA-49">
          <mxGeometry x="30" y="178" width="80" height="30" as="geometry" />
        </mxCell>
        <mxCell id="vaAEWbLIKPImY8yM4HJA-42" value="R4" style="text;html=1;align=center;verticalAlign=middle;resizable=0;points=[];autosize=1;strokeColor=none;fillColor=none;" vertex="1" parent="vaAEWbLIKPImY8yM4HJA-49">
          <mxGeometry x="150" y="178" width="40" height="30" as="geometry" />
        </mxCell>
        <mxCell id="vaAEWbLIKPImY8yM4HJA-31" value="Lembrar/&lt;div&gt;Livro&lt;/div&gt;" style="whiteSpace=wrap;html=1;" vertex="1" parent="vaAEWbLIKPImY8yM4HJA-49">
          <mxGeometry x="10" y="200" width="120" height="72" as="geometry" />
        </mxCell>
        <mxCell id="vaAEWbLIKPImY8yM4HJA-30" value="ComentÃ¡rio/&lt;br&gt;&lt;div&gt;Comunidade&lt;/div&gt;" style="whiteSpace=wrap;html=1;" vertex="1" parent="vaAEWbLIKPImY8yM4HJA-49">
          <mxGeometry x="10" y="360" width="120" height="70" as="geometry" />
        </mxCell>
        <mxCell id="vaAEWbLIKPImY8yM4HJA-37" value="10.0.3.0/24" style="text;html=1;align=center;verticalAlign=middle;resizable=0;points=[];autosize=1;strokeColor=none;fillColor=none;" vertex="1" parent="vaAEWbLIKPImY8yM4HJA-49">
          <mxGeometry x="30" y="340" width="80" height="30" as="geometry" />
        </mxCell>
        <mxCell id="vaAEWbLIKPImY8yM4HJA-41" value="R3" style="text;html=1;align=center;verticalAlign=middle;resizable=0;points=[];autosize=1;strokeColor=none;fillColor=none;" vertex="1" parent="vaAEWbLIKPImY8yM4HJA-49">
          <mxGeometry x="150" y="340" width="40" height="30" as="geometry" />
        </mxCell>
        <mxCell id="vaAEWbLIKPImY8yM4HJA-9" value="php" style="whiteSpace=wrap;html=1;" vertex="1" parent="vaAEWbLIKPImY8yM4HJA-49">
          <mxGeometry x="10" y="520" width="120" height="70" as="geometry" />
        </mxCell>
        <mxCell id="vaAEWbLIKPImY8yM4HJA-40" value="R2" style="text;html=1;align=center;verticalAlign=middle;resizable=0;points=[];autosize=1;strokeColor=none;fillColor=none;" vertex="1" parent="vaAEWbLIKPImY8yM4HJA-49">
          <mxGeometry x="150" y="500" width="40" height="30" as="geometry" />
        </mxCell>
        <mxCell id="vaAEWbLIKPImY8yM4HJA-36" value="10.0.2.0/24" style="text;html=1;align=center;verticalAlign=middle;resizable=0;points=[];autosize=1;strokeColor=none;fillColor=none;" vertex="1" parent="vaAEWbLIKPImY8yM4HJA-49">
          <mxGeometry x="30" y="500" width="80" height="30" as="geometry" />
        </mxCell>
        <mxCell id="vaAEWbLIKPImY8yM4HJA-52" style="edgeStyle=orthogonalEdgeStyle;rounded=0;orthogonalLoop=1;jettySize=auto;html=1;exitX=0;exitY=1;exitDx=0;exitDy=0;entryX=0;entryY=0.5;entryDx=0;entryDy=0;" edge="1" parent="vaAEWbLIKPImY8yM4HJA-49" source="vaAEWbLIKPImY8yM4HJA-15" target="vaAEWbLIKPImY8yM4HJA-12">
          <mxGeometry relative="1" as="geometry">
            <Array as="points">
              <mxPoint x="-100" y="750" />
              <mxPoint x="-100" y="76" />
            </Array>
          </mxGeometry>
        </mxCell>
        <mxCell id="vaAEWbLIKPImY8yM4HJA-56" style="edgeStyle=orthogonalEdgeStyle;rounded=0;orthogonalLoop=1;jettySize=auto;html=1;exitX=0;exitY=0.75;exitDx=0;exitDy=0;entryX=0;entryY=0.5;entryDx=0;entryDy=0;" edge="1" parent="vaAEWbLIKPImY8yM4HJA-49" source="vaAEWbLIKPImY8yM4HJA-15" target="vaAEWbLIKPImY8yM4HJA-31">
          <mxGeometry relative="1" as="geometry">
            <Array as="points">
              <mxPoint x="-80" y="733" />
              <mxPoint x="-80" y="236" />
            </Array>
          </mxGeometry>
        </mxCell>
        <mxCell id="vaAEWbLIKPImY8yM4HJA-59" style="edgeStyle=orthogonalEdgeStyle;rounded=0;orthogonalLoop=1;jettySize=auto;html=1;exitX=0;exitY=0.5;exitDx=0;exitDy=0;entryX=0;entryY=0.5;entryDx=0;entryDy=0;" edge="1" parent="vaAEWbLIKPImY8yM4HJA-49" source="vaAEWbLIKPImY8yM4HJA-15" target="vaAEWbLIKPImY8yM4HJA-30">
          <mxGeometry relative="1" as="geometry">
            <Array as="points">
              <mxPoint x="-60" y="715" />
              <mxPoint x="-60" y="395" />
            </Array>
          </mxGeometry>
        </mxCell>
        <mxCell id="vaAEWbLIKPImY8yM4HJA-60" style="edgeStyle=orthogonalEdgeStyle;rounded=0;orthogonalLoop=1;jettySize=auto;html=1;exitX=0;exitY=0.25;exitDx=0;exitDy=0;entryX=0;entryY=0.5;entryDx=0;entryDy=0;" edge="1" parent="vaAEWbLIKPImY8yM4HJA-49" source="vaAEWbLIKPImY8yM4HJA-15" target="vaAEWbLIKPImY8yM4HJA-9">
          <mxGeometry relative="1" as="geometry">
            <Array as="points">
              <mxPoint x="-40" y="697" />
              <mxPoint x="-40" y="555" />
            </Array>
          </mxGeometry>
        </mxCell>
        <mxCell id="vaAEWbLIKPImY8yM4HJA-15" value="Auth" style="whiteSpace=wrap;html=1;" vertex="1" parent="vaAEWbLIKPImY8yM4HJA-49">
          <mxGeometry x="10" y="680" width="120" height="70" as="geometry" />
        </mxCell>
        <mxCell id="vaAEWbLIKPImY8yM4HJA-39" value="R1" style="text;html=1;align=center;verticalAlign=middle;resizable=0;points=[];autosize=1;strokeColor=none;fillColor=none;" vertex="1" parent="vaAEWbLIKPImY8yM4HJA-49">
          <mxGeometry x="150" y="660" width="40" height="30" as="geometry" />
        </mxCell>
        <mxCell id="vaAEWbLIKPImY8yM4HJA-16" value="10.0.1.0/24" style="text;html=1;align=center;verticalAlign=middle;resizable=0;points=[];autosize=1;strokeColor=none;fillColor=none;" vertex="1" parent="vaAEWbLIKPImY8yM4HJA-49">
          <mxGeometry x="30" y="660" width="80" height="30" as="geometry" />
        </mxCell>
        <mxCell id="vaAEWbLIKPImY8yM4HJA-10" value="Docker" style="whiteSpace=wrap;html=1;" vertex="1" parent="1">
          <mxGeometry x="230" y="40" width="90" height="890" as="geometry" />
        </mxCell>
        <mxCell id="vaAEWbLIKPImY8yM4HJA-21" style="edgeStyle=orthogonalEdgeStyle;rounded=0;orthogonalLoop=1;jettySize=auto;html=1;exitX=0.5;exitY=1;exitDx=0;exitDy=0;entryX=0.5;entryY=0;entryDx=0;entryDy=0;" edge="1" parent="1" source="vaAEWbLIKPImY8yM4HJA-18" target="vaAEWbLIKPImY8yM4HJA-19">
          <mxGeometry relative="1" as="geometry" />
        </mxCell>
        <mxCell id="vaAEWbLIKPImY8yM4HJA-51" style="edgeStyle=orthogonalEdgeStyle;rounded=0;orthogonalLoop=1;jettySize=auto;html=1;exitX=0.5;exitY=0;exitDx=0;exitDy=0;entryX=0.5;entryY=1;entryDx=0;entryDy=0;" edge="1" parent="1" source="vaAEWbLIKPImY8yM4HJA-18" target="vaAEWbLIKPImY8yM4HJA-15">
          <mxGeometry relative="1" as="geometry" />
        </mxCell>
        <mxCell id="vaAEWbLIKPImY8yM4HJA-18" value="backend&lt;div&gt;&lt;br&gt;&lt;/div&gt;" style="whiteSpace=wrap;html=1;" vertex="1" parent="1">
          <mxGeometry x="450" y="870" width="120" height="60" as="geometry" />
        </mxCell>
        <mxCell id="vaAEWbLIKPImY8yM4HJA-22" style="edgeStyle=orthogonalEdgeStyle;rounded=0;orthogonalLoop=1;jettySize=auto;html=1;exitX=0.75;exitY=0;exitDx=0;exitDy=0;entryX=0.75;entryY=1;entryDx=0;entryDy=0;" edge="1" parent="1" source="vaAEWbLIKPImY8yM4HJA-19" target="vaAEWbLIKPImY8yM4HJA-18">
          <mxGeometry relative="1" as="geometry" />
        </mxCell>
        <mxCell id="vaAEWbLIKPImY8yM4HJA-19" value="frontend&lt;div&gt;&lt;br&gt;&lt;/div&gt;" style="whiteSpace=wrap;html=1;" vertex="1" parent="1">
          <mxGeometry x="450" y="990" width="120" height="60" as="geometry" />
        </mxCell>
      </root>
    </mxGraphModel>
  </diagram>
</mxfile>
